<?xml version="1.0" encoding="utf-8"?>
<!-- Generator: Adobe Illustrator 27.5.0, SVG Export Plug-In . SVG Version: 6.00 Build 0)  -->
<svg version="1.1" id="Layer_1" xmlns="http://www.w3.org/2000/svg" xmlns:xlink="http://www.w3.org/1999/xlink" x="0px" y="0px"
	 viewBox="0 0 74.3 65" style="enable-background:new 0 0 74.3 65;" xml:space="preserve">
<style type="text/css">
	.st0{fill:#FFFFFF;}
	.st1{fill:#D03F40;}
</style>
<g>
	<g>
		<path class="st0" d="M44.2,6.9H19.6c-2.5,0.1-4.4,2.2-4.3,4.7v41.9c-0.1,2.5,1.8,4.5,4.3,4.7h30.2c2.5-0.1,4.4-2.2,4.3-4.7V17.6
			L44.2,6.9L44.2,6.9z M19.6,53.4V11.6h21.5v9.3h8.6v32.6L19.6,53.4L19.6,53.4z"/>
		<path class="st0" d="M6,32.5c0.7,0.4,1.4,0.9,1.9,1.5c0.6,0.6,1.1,1.3,1.5,2.1c0.4,1,0.7,2,0.9,3c0.2,1.4,0.3,2.8,0.3,4.3v7.2
			c0,2.1,0.1,3.9,0.1,5.3c0,1.2,0.3,2.4,0.8,3.4c0.5,0.9,1.3,1.5,2.2,1.8c1.4,0.4,2.8,0.6,4.2,0.5V65h-0.5c-1.8,0-3.6-0.2-5.4-0.7
			c-1.3-0.4-2.5-1.1-3.4-2.1c-0.8-1-1.4-2.2-1.7-3.5c-0.4-1.6-0.5-3.2-0.5-4.8v-13c0-0.8-0.1-1.6-0.4-2.4c-0.2-0.8-0.6-1.5-1.2-2.1
			s-1.2-1.2-2-1.5C2,34.3,1,34.1,0,34.1v-3.3c1,0,2-0.2,2.9-0.6c0.8-0.4,1.4-0.9,2-1.5c0.5-0.6,0.9-1.3,1.2-2.1
			c0.2-0.8,0.4-1.6,0.4-2.4v-13C6.4,9.6,6.6,8,7,6.4c0.3-1.3,0.9-2.5,1.7-3.5c0.9-1,2.1-1.7,3.4-2.1C13.8,0.2,15.7,0,17.5,0H18v3.3
			c-1.4-0.1-2.9,0.1-4.2,0.5c-0.9,0.3-1.7,1-2.2,1.8c-0.5,1.1-0.8,2.2-0.8,3.4c-0.1,1.4-0.1,3.2-0.1,5.3v7.2c0,1.4-0.1,2.9-0.3,4.3
			C10.2,27,9.9,28,9.4,29c-0.4,0.8-0.9,1.5-1.5,2.1C7.4,31.7,6.7,32.1,6,32.5z M63.5,32.5c-0.7,0.4-1.4,0.9-2,1.5s-1.1,1.3-1.5,2.1
			c-0.4,1-0.7,2-0.9,3c-0.2,1.4-0.3,2.8-0.3,4.3v7.2c0,2.1,0,3.9-0.1,5.3c0,1.2-0.3,2.4-0.8,3.4c-0.5,0.9-1.3,1.5-2.2,1.8
			c-1.4,0.4-2.8,0.6-4.2,0.5V65H52c1.8,0,3.6-0.2,5.4-0.7c1.3-0.4,2.5-1.1,3.4-2.1s1.5-2.2,1.8-3.5c0.3-1.6,0.5-3.2,0.5-4.8v-13
			c0-0.8,0.1-1.6,0.4-2.4c0.2-0.8,0.6-1.5,1.2-2.1s1.2-1.2,2-1.5c0.9-0.4,1.9-0.6,2.9-0.6V31c-1.9,0.1-3.7-0.7-4.9-2.1
			c-0.5-0.6-0.9-1.3-1.2-2.1c-0.4-1-0.5-1.8-0.5-2.6v-13c0-1.6-0.1-3.2-0.5-4.8c-0.3-1.3-0.9-2.5-1.8-3.5c-0.9-1-2.1-1.7-3.4-2.2
			C55.6,0.2,53.8,0,52,0h-0.5v3.3c1.4-0.1,2.9,0.1,4.2,0.5c0.9,0.3,1.7,1,2.2,1.8c0.5,1.1,0.8,2.2,0.8,3.4c0.1,1.4,0.1,3.2,0.1,5.3
			v7.2c0,1.4,0.1,2.9,0.3,4.3c0.2,1.1,0.5,2.1,0.9,3.1c0.4,0.8,0.9,1.5,1.5,2.1C62.1,31.7,62.8,32.2,63.5,32.5L63.5,32.5z"/>
	</g>
	<g>
		<ellipse class="st1" cx="39.8" cy="46.6" rx="17" ry="16.9"/>
		<path class="st0" d="M36.9,35.6h6.5v5l-1.3,10.2h-4l-1.2-10.2V35.6z M37.1,52.3h6.1v5.4h-6.1V52.3z"/>
	</g>
</g>
<path class="st0" d="M74.3,59.9c0,0.7-0.1,1.5-0.4,2.1c-0.5,1.2-1.4,2.1-2.6,2.6s-2.5,0.5-3.7,0c-0.6-0.2-1.1-0.6-1.5-1
	c-0.5-0.5-0.8-1-1.1-1.6c-0.5-1.4-0.5-2.9,0-4.3c0.2-0.6,0.6-1.1,1.1-1.6c0.4-0.4,1-0.8,1.5-1c1.2-0.5,2.5-0.5,3.7,0
	s2.1,1.4,2.6,2.6C74.1,58.5,74.3,59.2,74.3,59.9z M73,59.9c0-0.5-0.1-1.1-0.3-1.6c-0.2-0.5-0.4-0.9-0.8-1.2
	c-0.3-0.3-0.7-0.6-1.1-0.8c-0.5-0.2-1-0.3-1.5-0.2c-0.5,0-1,0.1-1.5,0.3c-0.4,0.2-0.8,0.5-1.1,0.8c-0.3,0.4-0.6,0.8-0.7,1.2
	c-0.3,1-0.3,2.2,0,3.2c0.2,0.5,0.4,0.9,0.7,1.2c0.3,0.3,0.7,0.6,1.1,0.8c0.5,0.2,1,0.3,1.5,0.3s1-0.1,1.5-0.3
	c0.4-0.2,0.8-0.5,1.1-0.8c0.3-0.4,0.6-0.8,0.8-1.2C72.9,61.1,73,60.5,73,59.9L73,59.9z M70.6,62.5c-0.2-0.4-0.4-0.8-0.6-1.1
	s-0.3-0.5-0.5-0.8h-0.8v1.9h-1.2v-5.1c0.3-0.1,0.6-0.1,0.9-0.2c0.2,0,0.5,0,0.7,0c0.6,0,1.2,0.1,1.8,0.4c0.4,0.3,0.6,0.8,0.6,1.3
	c0,0.6-0.3,1.2-0.9,1.4c0.2,0.3,0.4,0.6,0.6,0.9c0.2,0.4,0.4,0.8,0.6,1.2L70.6,62.5L70.6,62.5z M68.7,59.7h0.4c0.3,0,0.6,0,0.9-0.2
	s0.4-0.6,0.2-1c-0.1-0.1-0.1-0.1-0.2-0.2c-0.2-0.1-0.5-0.2-0.8-0.2H69h-0.3V59.7z"/>
</svg>
