<svg width="279" height="280" viewBox="0 0 279 280" fill="none" xmlns="http://www.w3.org/2000/svg">
<g clip-path="url(#clip0_11_18)">
<rect width="278.48" height="280" rx="139.24" fill="#F35A69"/>
<path d="M114.493 129.328C123.107 129.328 130.089 122.308 130.089 113.647C130.089 104.987 123.107 97.9662 114.493 97.9662C105.88 97.9662 98.8975 104.987 98.8975 113.647C98.8975 122.308 105.88 129.328 114.493 129.328Z" fill="#221C35"/>
<path d="M163.966 129.328C172.579 129.328 179.561 122.308 179.561 113.647C179.561 104.987 172.579 97.9662 163.966 97.9662C155.352 97.9662 148.37 104.987 148.37 113.647C148.37 122.308 155.352 129.328 163.966 129.328Z" fill="#221C35"/>
<path d="M232.848 234.118C232.848 216.968 228.289 200.892 220.327 187.053C215.463 178.61 209.334 170.999 202.201 164.464C202.048 164.332 201.896 164.201 201.743 164.069C201.067 163.455 200.391 162.863 199.693 162.271C199.475 162.073 199.256 161.898 199.016 161.722C198.689 161.459 198.384 161.196 198.057 160.933C198.057 160.933 198.057 160.933 198.057 160.955C198.057 160.955 198.057 160.955 198.057 160.933C197.817 160.736 197.577 160.56 197.337 160.363C197.119 160.187 196.682 159.836 196.682 159.836C184.838 150.559 170.726 144.089 155.326 141.392C153.167 141.019 150.985 141.831 149.568 143.519L139.25 155.691L128.933 143.519C127.515 141.852 125.334 141.019 123.174 141.392C107.164 144.177 92.5497 151.064 80.4219 160.911C77.9353 153.871 76.6702 146.283 76.8665 138.365C77.7172 104.503 105.506 77.2641 139.207 77.2422C173.627 77.2202 201.656 105.38 201.656 139.988C201.656 143.234 201.416 146.414 200.936 149.507C200.631 151.502 201.438 153.52 202.986 154.792C209.225 159.88 214.809 165.626 219.651 171.943C221.92 174.903 226.566 174.136 227.787 170.583C231.081 160.977 232.848 150.691 232.848 139.966C232.848 116.412 224.253 94.897 210.032 78.3826C208.505 76.6281 208.483 74.0182 209.988 72.2418L221.854 58.2494C223.577 56.2098 222.138 53.0736 219.477 53.0736H190.706C182.046 53.0736 173.409 51.8893 165.098 49.4768C156.875 47.1082 148.215 45.8362 139.228 45.8362C130.242 45.8362 121.582 47.1082 113.359 49.4768C105.026 51.8893 96.4105 53.0736 87.7509 53.0736H59.0021C56.341 53.0736 54.9013 56.2098 56.6245 58.2494L68.4905 72.2418C69.9956 74.0182 69.9738 76.6281 68.4469 78.3826C54.2251 94.897 45.631 116.412 45.631 139.966C45.631 154.31 48.8375 167.885 54.5305 180.035C54.9886 181 55.4685 181.965 55.9483 182.93C56.101 183.237 56.2537 183.544 56.4064 183.851C56.5809 184.18 56.7554 184.531 56.9299 184.86C57.3225 185.584 57.7151 186.308 58.1296 187.031C57.6715 187.821 57.2353 188.611 56.799 189.422C56.5155 189.948 56.2537 190.453 55.992 190.979C55.8611 191.242 55.7302 191.484 55.5993 191.747C55.2503 192.427 54.9231 193.128 54.596 193.808C54.5523 193.874 54.5305 193.962 54.4869 194.028C54.1379 194.795 53.7889 195.563 53.4399 196.33C48.4012 207.888 45.5874 220.653 45.5874 234.075C45.5874 256.642 53.4835 277.346 66.6583 293.553C66.6583 293.553 66.6583 293.553 66.6365 293.553C83.7811 314.673 109.891 328.183 139.119 328.205C143.176 328.205 147.168 327.942 151.094 327.437C155.522 326.867 156.678 320.967 152.818 318.73C143.286 313.16 134.539 306.383 126.643 298.444C126.621 298.422 126.621 298.422 126.599 298.4C124.396 296.185 121.757 294.43 118.812 293.399C107.36 289.43 97.4139 282.17 90.0849 272.784C81.7307 262.103 76.7574 248.659 76.7574 234.075C76.7574 226.749 78.0226 219.709 80.3347 213.152C80.2474 213.064 80.1384 212.998 80.0511 212.911C80.1384 212.998 80.2474 213.064 80.3347 213.152C83.9119 202.976 90.0413 194.006 97.9374 187.01C108.931 177.25 123.371 171.328 139.163 171.328C154.955 171.328 169.395 177.25 180.389 187.01C188.285 194.006 194.414 202.976 197.991 213.152C200.303 219.688 201.568 226.749 201.568 234.075V234.097V295.351C183.813 292.127 167.279 283.684 154.366 270.722C137.527 253.813 128.235 231.333 128.235 207.406C128.235 200.256 129.064 193.216 130.7 186.374C131.485 183.062 128.431 180.101 125.159 180.978C117.045 183.15 109.476 187.185 103.063 192.865C102.605 193.282 102.147 193.677 101.711 194.115C98.8317 196.857 97.1521 200.651 97.0649 204.642C97.0431 205.564 97.0431 206.485 97.0431 207.406C97.0431 223.701 100.228 239.536 106.488 254.427C112.53 268.814 121.211 281.732 132.227 292.829C143.264 303.927 156.111 312.633 170.42 318.708C185.253 325.003 200.98 328.205 217.186 328.205H228.114C230.71 328.205 232.804 326.099 232.804 323.49L232.848 234.118Z" fill="#221C35"/>
</g>
<defs>
<clipPath id="clip0_11_18">
<rect width="278.48" height="280" rx="139.24" fill="white"/>
</clipPath>
</defs>
</svg>
