<svg width="842" height="140" viewBox="0 0 842 140" fill="none" xmlns="http://www.w3.org/2000/svg">
<g clip-path="url(#clip0_11_23)">
<path d="M608.163 37.4166C599.453 36.852 590.813 39.2944 583.67 44.3394C576.528 49.3844 571.312 56.7295 568.886 65.1605C567.773 67.3192 569.92 69.4783 572.066 69.4783H592.262C593.295 69.4783 595.442 68.3588 595.442 67.3194C596.466 65.1459 598.149 63.3552 600.249 62.2056C602.35 61.0561 604.759 60.6071 607.13 60.9232C608.818 60.8556 610.502 61.1401 612.076 61.7591C613.65 62.3781 615.08 63.3181 616.275 64.5197C617.47 65.7214 618.404 67.1588 619.02 68.7414C619.635 70.3241 619.918 72.0176 619.851 73.7156V82.2708C613.694 77.7939 606.213 75.54 598.622 75.8746C590.187 75.8746 582.098 79.244 576.133 85.2418C570.169 91.2395 566.818 99.3742 566.818 107.856C566.818 116.338 570.169 124.473 576.133 130.471C582.098 136.469 590.187 139.838 598.622 139.838C606.682 139.826 614.52 137.19 620.964 132.322V134.481C620.896 134.917 620.932 135.362 621.068 135.781C621.204 136.2 621.436 136.582 621.746 136.893C622.056 137.205 622.435 137.439 622.852 137.575C623.269 137.712 623.712 137.747 624.145 137.679H643.227C643.663 137.744 644.108 137.707 644.528 137.57C644.947 137.434 645.329 137.201 645.645 136.892C645.96 136.582 646.201 136.204 646.347 135.786C646.493 135.367 646.541 134.921 646.487 134.481V72.5166C647.521 51.3287 630.506 37.4166 608.163 37.4166ZM606.096 117.371C602.896 117.606 599.721 116.654 597.172 114.695C594.622 112.735 592.875 109.904 592.262 106.737C592.262 100.261 598.622 96.0232 606.096 96.0232C609.298 95.7931 612.472 96.7586 615.01 98.7355C617.548 100.712 619.272 103.561 619.851 106.737C619.851 112.174 614.604 117.531 606.176 117.531L606.096 117.371Z" fill="white"/>
<path d="M773.144 106.897H791.273C793.34 106.897 795.487 107.936 795.487 110.095C796.313 111.959 797.648 113.549 799.336 114.682C801.025 115.814 802.999 116.442 805.028 116.492C810.355 116.492 814.648 113.293 814.648 108.976C814.648 102.58 807.174 100.421 799.78 98.3418C784.832 95.1437 769.964 87.6279 769.964 67.3195C769.964 47.0112 786.979 36.2973 805.028 36.2973C812.791 35.8063 820.49 37.9733 826.872 42.4451C833.253 46.9169 837.941 53.43 840.171 60.9233C841.205 64.1215 839.058 66.2801 835.878 66.2801H817.829C817.001 66.249 816.19 66.0405 815.45 65.6681C814.709 65.2958 814.057 64.7681 813.535 64.1212C812.887 62.4214 811.706 60.9799 810.171 60.0137C808.637 59.0474 806.832 58.6089 805.028 58.7644C800.814 58.7644 796.52 61.9625 796.52 65.1606C796.52 70.5176 802.961 73.716 812.422 75.8747C827.29 79.0729 842.159 86.5885 842.159 105.778C842.159 124.967 825.144 137.759 804.948 137.759C784.753 137.759 770.998 127.125 768.851 112.094C768.692 110.095 770.839 106.897 773.144 106.897Z" fill="white"/>
<path d="M561.411 112.177V132.486C561.356 133.315 561.003 134.096 560.418 134.684C559.833 135.272 559.056 135.627 558.231 135.683H495.498C494.673 135.627 493.896 135.272 493.311 134.684C492.726 134.096 492.373 133.315 492.317 132.486V9.35564C492.373 8.52591 492.726 7.74475 493.311 7.1567C493.896 6.56866 494.673 6.2134 495.498 6.15727H516.807C517.632 6.2134 518.408 6.56866 518.993 7.1567C519.578 7.74475 519.931 8.52591 519.987 9.35564V108.739H557.198C559.265 108.979 561.411 110.098 561.411 112.177Z" fill="white"/>
<path d="M717.489 37.4181C712.098 37.5158 706.781 38.698 701.851 40.8951C696.922 43.0922 692.479 46.2596 688.786 50.2106V5.35631C688.786 3.19755 686.719 -0.000488281 684.572 -0.000488281H666.524C665.258 0.160042 664.103 0.808034 663.302 1.80707C662.501 2.80611 662.117 4.07822 662.23 5.35631V131.444C662.23 133.603 664.377 136.801 666.524 136.801H684.572C685.832 136.641 686.979 135.99 687.767 134.988C688.555 133.987 688.921 132.714 688.786 131.444V125.048C692.319 129.198 696.73 132.501 701.696 134.715C706.663 136.928 712.059 137.996 717.489 137.841C744.045 137.841 763.207 116.493 763.207 87.6291C763.77 81.2504 763.006 74.8237 760.964 68.7581C758.922 62.6924 755.647 57.1209 751.346 52.3978C747.046 47.6747 741.814 43.9035 735.985 41.3245C730.156 38.7456 723.857 37.4152 717.489 37.4181ZM712.162 112.175C709.075 112.241 706.006 111.678 703.14 110.519C700.275 109.361 697.672 107.632 695.488 105.436C693.304 103.24 691.585 100.623 690.433 97.741C689.281 94.8595 688.721 91.7734 688.786 88.6686C688.82 82.3464 691.261 76.2776 695.61 71.7115C699.958 67.1453 705.882 64.4294 712.162 64.1225C718.488 64.1225 724.555 66.65 729.028 71.1483C733.502 75.6466 736.015 81.7473 736.015 88.1088C736.015 94.4704 733.502 100.572 729.028 105.07C724.555 109.568 718.488 112.095 712.162 112.095V112.175Z" fill="white"/>
<path d="M3.41231 97.3049H26.7882C27.9013 97.3049 29.9688 98.4244 29.9688 99.4638C30.5892 103.19 32.5544 106.556 35.4884 108.916C38.4225 111.276 42.1191 112.466 45.8707 112.256C47.693 112.455 49.536 112.276 51.287 111.732C53.0381 111.187 54.6599 110.288 56.0526 109.09C57.4453 107.891 58.5796 106.419 59.3855 104.764C60.1914 103.109 60.652 101.305 60.739 99.4638C60.739 90.9087 50.0847 85.5516 38.3968 82.3535C20.3481 78.1159 2.29905 67.4019 2.29905 41.7365C2.29905 19.3493 21.3817 3.27855 45.8707 3.27855C56.3777 2.6088 66.7415 6.00287 74.8415 12.7658C82.9415 19.5287 88.1647 29.149 89.4419 39.6577C89.3861 40.4874 89.0328 41.269 88.448 41.8571C87.8633 42.4451 87.0864 42.7999 86.2613 42.856H61.7727C61.2298 42.8004 60.724 42.553 60.3454 42.1577C59.9669 41.7624 59.7402 41.2447 59.7053 40.6971C59.1251 37.507 57.3896 34.6467 54.8345 32.668C52.2794 30.6893 49.086 29.7328 45.8707 29.9835C37.3632 29.9835 32.0356 34.3008 32.0356 40.6971C32.0356 49.2522 40.5431 53.4898 53.3442 56.688C72.4265 62.0449 91.5888 71.6396 91.5888 97.3049C91.5888 120.811 72.427 137.922 45.8707 137.922C34.8855 138.997 23.9217 135.67 15.3616 128.663C6.80145 121.657 1.33639 111.538 0.152622 100.503C0.0811607 100.06 0.116591 99.6054 0.256473 99.1788C0.396356 98.7523 0.636548 98.3662 0.95626 98.0525C1.27597 97.7389 1.66577 97.5072 2.09329 97.3771C2.52081 97.247 2.9733 97.2221 3.41231 97.3049Z" fill="white"/>
<path d="M141.6 37.4171C132.816 36.7691 124.078 39.1702 116.843 44.2194C109.608 49.2686 104.314 56.6603 101.845 65.161C100.811 67.3198 102.958 69.4789 105.104 69.4789H125.3C126.334 69.4789 128.48 68.3594 128.48 67.32C129.494 65.1384 131.176 63.3406 133.279 62.1896C135.382 61.0386 137.796 60.5949 140.168 60.9237C141.857 60.8562 143.541 61.1407 145.115 61.7597C146.689 62.3786 148.118 63.3186 149.313 64.5203C150.508 65.7219 151.443 67.1593 152.059 68.742C152.674 70.3246 152.957 72.0182 152.89 73.7162V82.2714C146.727 77.8058 139.25 75.5531 131.661 75.8751C123.226 75.8751 115.136 79.2446 109.172 85.2423C103.208 91.2401 99.8569 99.3748 99.8569 107.857C99.8569 116.339 103.208 124.474 109.172 130.471C115.136 136.469 123.226 139.839 131.661 139.839C139.699 139.845 147.517 137.205 153.923 132.323V134.482C153.87 134.922 153.918 135.368 154.064 135.786C154.21 136.204 154.45 136.583 154.765 136.893C155.081 137.202 155.464 137.434 155.883 137.571C156.302 137.707 156.748 137.745 157.184 137.68H176.822C177.255 137.748 177.699 137.712 178.116 137.576C178.532 137.439 178.911 137.206 179.221 136.894C179.531 136.582 179.764 136.201 179.9 135.782C180.035 135.363 180.071 134.917 180.003 134.482V72.5172C180.957 51.3293 163.942 37.4171 141.6 37.4171ZM139.453 117.371C136.266 117.587 133.11 116.625 130.577 114.667C128.045 112.71 126.31 109.89 125.698 106.737C125.698 100.261 132.058 96.0238 139.453 96.0238C141.076 95.5964 142.775 95.5489 144.419 95.8852C146.063 96.2214 147.608 96.9322 148.936 97.9631C150.264 98.994 151.339 100.317 152.079 101.831C152.819 103.346 153.204 105.01 153.204 106.697C153.204 108.384 152.819 110.049 152.079 111.563C151.339 113.077 150.264 114.401 148.936 115.432C147.608 116.462 146.063 117.174 144.419 117.51C142.775 117.846 141.076 117.799 139.453 117.371Z" fill="white"/>
<path d="M324.393 37.4166C315.683 36.852 307.042 39.2944 299.9 44.3394C292.758 49.3844 287.542 56.7295 285.115 65.1605C284.002 67.3192 286.149 69.4783 288.296 69.4783H308.491C309.525 69.4783 311.672 68.3588 311.672 67.3194C312.695 65.1459 314.378 63.3552 316.479 62.2056C318.579 61.0561 320.989 60.6071 323.359 60.9232C325.048 60.8556 326.732 61.1401 328.306 61.7591C329.88 62.3781 331.309 63.3181 332.504 64.5197C333.699 65.7214 334.634 67.1588 335.249 68.7414C335.865 70.3241 336.148 72.0176 336.081 73.7156V82.2708C330.207 77.1603 322.612 74.5003 314.852 74.8351C306.417 74.8351 298.327 78.2046 292.363 84.2023C286.399 90.2001 283.048 98.3347 283.048 106.817C283.048 115.299 286.399 123.434 292.363 129.431C298.327 135.429 306.417 138.799 314.852 138.799C322.906 138.753 330.734 136.12 337.194 131.283V133.442C337.126 133.877 337.162 134.323 337.297 134.742C337.433 135.161 337.666 135.542 337.976 135.854C338.286 136.166 338.664 136.4 339.081 136.536C339.498 136.673 339.941 136.708 340.375 136.64H359.695C360.131 136.704 360.577 136.667 360.996 136.531C361.415 136.394 361.798 136.162 362.113 135.852C362.429 135.543 362.669 135.164 362.815 134.746C362.961 134.328 363.009 133.882 362.955 133.442V72.5166C363.75 51.3287 346.735 37.4166 324.393 37.4166ZM322.326 117.371C319.125 117.606 315.951 116.654 313.401 114.695C310.852 112.735 309.105 109.904 308.491 106.737C308.491 100.26 314.852 96.0232 322.326 96.0232C323.949 95.5959 325.648 95.5484 327.292 95.8846C328.936 96.2208 330.481 96.9316 331.809 97.9625C333.137 98.9934 334.213 100.317 334.952 101.831C335.692 103.345 336.077 105.01 336.077 106.697C336.077 108.384 335.692 110.048 334.952 111.563C334.213 113.077 333.137 114.4 331.809 115.431C330.481 116.462 328.936 117.173 327.292 117.509C325.648 117.846 323.949 117.798 322.326 117.371Z" fill="white"/>
<path d="M377.585 106.897H395.634C397.78 106.897 399.847 107.937 399.847 110.095C400.695 111.96 402.046 113.548 403.747 114.679C405.447 115.81 407.43 116.438 409.468 116.492C414.795 116.492 419.009 113.294 419.009 108.976C419.009 102.58 411.536 100.421 404.141 98.3423C389.273 95.1441 374.404 87.6284 374.404 67.32C374.404 47.0116 391.34 36.2977 409.468 36.2977C417.223 35.7962 424.918 37.9602 431.289 42.4348C437.66 46.9095 442.33 53.4292 444.532 60.9238C445.565 64.1219 443.419 66.2806 440.238 66.2806H422.189C421.371 66.2595 420.568 66.0548 419.839 65.6813C419.11 65.3078 418.474 64.7747 417.976 64.1216C417.306 62.4369 416.121 61.0102 414.591 60.0473C413.062 59.0844 411.268 58.6351 409.468 58.7648C405.175 58.7648 400.961 61.9629 400.961 65.1611C400.961 70.518 407.321 73.7164 416.862 75.8752C431.731 79.0733 446.679 86.589 446.679 105.778C446.679 124.967 429.664 137.76 409.468 137.76C389.273 137.76 375.438 127.126 373.291 112.094C372.258 110.095 374.404 106.897 377.585 106.897Z" fill="white"/>
<path d="M246.791 43.8135C246.141 66.8885 241.486 89.6716 233.036 111.135C224.558 89.6765 219.876 66.8932 219.201 43.8135C219.126 42.6931 218.65 41.6381 217.861 40.844C217.071 40.05 216.021 39.5711 214.907 39.4962H194.712C193.612 39.5895 192.582 40.0762 191.808 40.8684C191.035 41.6607 190.57 42.7058 190.498 43.8135C191.198 74.6864 198.837 105 212.84 132.483C213.336 133.468 214.1 134.292 215.043 134.858C215.986 135.424 217.069 135.709 218.167 135.681H246.791C247.888 135.709 248.972 135.424 249.915 134.858C250.858 134.292 251.621 133.468 252.118 132.483C266.121 105 273.76 74.6864 274.46 43.8135C274.388 42.7058 273.923 41.6607 273.15 40.8684C272.376 40.0762 271.346 39.5895 270.246 39.4962H250.051C249.138 39.8014 248.338 40.3771 247.756 41.1476C247.174 41.9181 246.838 42.8472 246.791 43.8135Z" fill="white"/>
</g>
<defs>
<clipPath id="clip0_11_23">
<rect width="841.769" height="140" fill="white" transform="translate(0.230469)"/>
</clipPath>
</defs>
</svg>
